<svg xmlns="http://www.w3.org/2000/svg" width="22" height="22" fill="none"><path fill="#fff" d="M3.438 16.923H.688a.63.63 0 00-.487.248.954.954 0 00-.201.598v3.385c0 .224.072.44.201.598A.63.63 0 00.687 22h2.75a.63.63 0 00.487-.248.954.954 0 00.201-.598v-3.385a.954.954 0 00-.201-.598.63.63 0 00-.486-.248zM3.438 0H.688A.63.63 0 00.2.248.954.954 0 000 .846v3.385c0 .224.072.44.201.598a.63.63 0 00.486.248h2.75a.63.63 0 00.487-.248.954.954 0 00.201-.598V.846a.954.954 0 00-.201-.598A.63.63 0 003.438 0zm0 8.462H.688a.63.63 0 00-.487.247.954.954 0 00-.201.599v3.384c0 .225.072.44.201.599a.63.63 0 00.486.248h2.75a.63.63 0 00.487-.248.954.954 0 00.201-.599V9.308a.954.954 0 00-.201-.599.63.63 0 00-.486-.247zm17.875 9.307H7.563a.63.63 0 00-.487.248.954.954 0 00-.201.598v1.693c0 .224.072.44.201.598a.63.63 0 00.487.248h13.75a.63.63 0 00.486-.248.954.954 0 00.201-.598v-1.693a.954.954 0 00-.201-.598.63.63 0 00-.486-.248zm0-16.923H7.563a.63.63 0 00-.487.248.954.954 0 00-.201.598v1.693c0 .224.072.44.201.598a.63.63 0 00.487.248h13.75a.63.63 0 00.486-.248.954.954 0 00.201-.598V1.692a.954.954 0 00-.201-.598.63.63 0 00-.486-.248zm0 8.462H7.563a.63.63 0 00-.487.248.954.954 0 00-.201.598v1.692c0 .225.072.44.201.598a.63.63 0 00.487.248h13.75a.63.63 0 00.486-.248.954.954 0 00.201-.598v-1.692a.954.954 0 00-.201-.598.63.63 0 00-.486-.248z"/></svg>