<svg xmlns="http://www.w3.org/2000/svg" width="18" height="18" fill="none"><path fill="#BFBFBF" d="M17.755 15.562l-3.505-3.505a.843.843 0 00-.598-.246h-.573a7.275 7.275 0 001.547-4.5A7.311 7.311 0 007.313 0 7.311 7.311 0 000 7.312a7.311 7.311 0 007.313 7.312c1.698 0 3.26-.577 4.5-1.547v.573c0 .225.088.44.246.597l3.506 3.505a.84.84 0 001.192 0l.995-.995c.33-.33.33-.864.003-1.195zm-10.442-3.75c-2.486 0-4.5-2.011-4.5-4.5 0-2.486 2.01-4.5 4.5-4.5 2.486 0 4.5 2.011 4.5 4.5 0 2.485-2.01 4.5-4.5 4.5z"/></svg>